<svg xmlns="http://www.w3.org/2000/svg" xmlns:svg="http://www.w3.org/2000/svg" xmlns:xlink="http://www.w3.org/1999/xlink" width="100%" height="100%"><g id="Address_memory_space" transform="translate(80,20)" style="font-family:sans-serif;font-size:8px"><text x="45" y="-4" text-anchor="middle">Address memory space</text><g transform="translate(0,0)"><rect style="fill:none;stroke:#000;stroke-width:.25" width="90" height="50" x="0" y="0"/><text x="45" y="25" text-anchor="middle" transform="translate(0,2)">Code</text><text style="font-family:monospace" x="-2" y="2" text-anchor="end">0x00000000</text></g><g transform="translate(0,50)"><rect style="fill:none;stroke:#000;stroke-width:.25" width="90" height="50" x="0" y="0"/><text x="45" y="25" text-anchor="middle" transform="translate(0,2)">Internal SRAM</text><text style="font-family:monospace" x="-2" y="2" text-anchor="end">0x20000000</text></g><g transform="translate(0,100)"><rect style="fill:none;stroke:#000;stroke-width:.25" width="90" height="50" x="0" y="0"/><text x="45" y="25" text-anchor="middle" transform="translate(0,2)">Peripherals</text><text style="font-family:monospace" x="-2" y="2" text-anchor="end">0x40000000</text></g><g transform="translate(0,150)"><rect style="fill:none;stroke:#000;stroke-width:.25" width="90" height="50" x="0" y="0"/><text x="45" y="25" text-anchor="middle" transform="translate(0,2)">External SRAM</text><text style="font-family:monospace" x="-2" y="2" text-anchor="end">0x60000000</text></g><g transform="translate(0,200)"><rect style="fill:#eee;stroke:#000;stroke-width:.25" width="90" height="50" x="0" y="0"/><text x="45" y="25" text-anchor="middle" transform="translate(0,2)">Reserved</text><text style="font-family:monospace" x="-2" y="2" text-anchor="end">0xA0000000</text></g><g transform="translate(0,250)"><rect style="fill:none;stroke:#000;stroke-width:.25" width="90" height="50" x="0" y="0"/><text x="45" y="25" text-anchor="middle" transform="translate(0,2)">System</text><text style="font-family:monospace" x="-2" y="2" text-anchor="end">0xE0000000</text><text style="font-family:monospace" x="-2" y="52" text-anchor="end">0xFFFFFFFF</text></g><rect style="fill:none;stroke:#000;stroke-width:1" width="90" height="300" x="0" y="0"/></g><g id="Code" transform="translate(260,20)" style="font-family:sans-serif;font-size:8px"><text x="45" y="-4" text-anchor="middle">Code</text><g transform="translate(0,0)"><rect style="fill:none;stroke:#000;stroke-width:.25" width="90" height="25" x="0" y="0"/><text x="45" y="12.5" text-anchor="middle" transform="translate(0,2)">Boot Memory</text><text style="font-family:monospace" x="-2" y="2" text-anchor="end">0x00000000</text></g><g transform="translate(0,25)"><rect style="fill:none;stroke:#000;stroke-width:.25" width="90" height="25" x="0" y="0"/><text x="45" y="12.5" text-anchor="middle" transform="translate(0,2)">Internal Flash 0</text><text style="font-family:monospace" x="-2" y="2" text-anchor="end">0x00080000</text></g><g transform="translate(0,50)"><rect style="fill:none;stroke:#000;stroke-width:.25" width="90" height="25" x="0" y="0"/><text x="45" y="12.5" text-anchor="middle" transform="translate(0,2)">Internal Flash 1</text><text style="font-family:monospace" x="-2" y="2" text-anchor="end">0x00100000</text></g><g transform="translate(0,75)"><rect style="fill:none;stroke:#000;stroke-width:.25" width="90" height="25" x="0" y="0"/><text x="45" y="12.5" text-anchor="middle" transform="translate(0,2)">Internal ROM</text><text style="font-family:monospace" x="-2" y="2" text-anchor="end">0x00180000</text></g><g transform="translate(0,100)"><rect style="fill:#eee;stroke:#000;stroke-width:.25" width="90" height="25" x="0" y="0"/><text x="45" y="12.5" text-anchor="middle" transform="translate(0,2)">Reserved</text><text style="font-family:monospace" x="-2" y="2" text-anchor="end">0x00200000</text><text style="font-family:monospace" x="-2" y="27" text-anchor="end">0x1FFFFFFF</text></g><rect style="fill:none;stroke:#000;stroke-width:1" width="90" height="125" x="0" y="0"/></g><g id="Internal_SRAM" transform="translate(260,170)" style="font-family:sans-serif;font-size:8px"><text x="45" y="-4" text-anchor="middle">Internal SRAM</text><g transform="translate(0,0)"><rect style="fill:none;stroke:#000;stroke-width:.25" width="90" height="25" x="0" y="0"/><text x="45" y="12.5" text-anchor="middle" transform="translate(0,2)">SRAM0</text><text style="font-family:monospace" x="-2" y="2" text-anchor="end">0x20000000</text></g><g transform="translate(0,25)"><rect style="fill:none;stroke:#000;stroke-width:.25" width="90" height="25" x="0" y="0"/><text x="45" y="12.5" text-anchor="middle" transform="translate(0,2)">SRAM1</text><text style="font-family:monospace" x="-2" y="2" text-anchor="end">0x20080000</text></g><g transform="translate(0,50)"><rect style="fill:none;stroke:#000;stroke-width:.25" width="90" height="25" x="0" y="0"/><text x="45" y="12.5" text-anchor="middle" transform="translate(0,2)">NFC (SRAM)</text><text style="font-family:monospace" x="-2" y="2" text-anchor="end">0x20100000</text></g><g transform="translate(0,75)"><rect style="fill:none;stroke:#000;stroke-width:.25" width="90" height="25" x="0" y="0"/><text x="45" y="12.5" text-anchor="middle" transform="translate(0,2)">UDPHS (DMA)</text><text style="font-family:monospace" x="-2" y="2" text-anchor="end">0x20180000</text></g><g transform="translate(0,100)"><rect style="fill:#eee;stroke:#000;stroke-width:.25" width="90" height="25" x="0" y="0"/><text x="45" y="12.5" text-anchor="middle" transform="translate(0,2)">Undefined (Abort)</text><text style="font-family:monospace" x="-2" y="2" text-anchor="end">0x20200000</text><text style="font-family:monospace" x="-2" y="27" text-anchor="end">0x40000000</text></g><rect style="fill:none;stroke:#000;stroke-width:1" width="90" height="125" x="0" y="0"/></g><g id="Peripherals" transform="translate(260,320)" style="font-family:sans-serif;font-size:8px"><text x="45" y="-4" text-anchor="middle">Peripherals</text><g transform="translate(0,0)"><rect style="fill:none;stroke:#000;stroke-width:.25" width="90" height="25" x="0" y="0"/><a xlink:href="HSMCI.html"><text x="45" y="12.5" text-anchor="middle" transform="translate(0,2)">HSMCI</text></a><text style="font-family:monospace" x="86" y="21" text-anchor="end" transform="translate(0,2)">17</text><text style="font-family:monospace" x="-2" y="2" text-anchor="end">0x40000000</text></g><g transform="translate(0,25)"><rect style="fill:none;stroke:#000;stroke-width:.25" width="90" height="25" x="0" y="0"/><a xlink:href="SSC.html"><text x="45" y="12.5" text-anchor="middle" transform="translate(0,2)">SSC</text></a><text style="font-family:monospace" x="86" y="21" text-anchor="end" transform="translate(0,2)">21</text><text style="font-family:monospace" x="-2" y="2" text-anchor="end">0x40004000</text></g><g transform="translate(0,50)"><rect style="fill:none;stroke:#000;stroke-width:.25" width="90" height="25" x="0" y="0"/><a xlink:href="SPI.html"><text x="45" y="12.5" text-anchor="middle" transform="translate(0,2)">SPI</text></a><text style="font-family:monospace" x="86" y="21" text-anchor="end" transform="translate(0,2)">20</text><text style="font-family:monospace" x="-2" y="2" text-anchor="end">0x40008000</text></g><g transform="translate(0,75)"><rect style="fill:#eee;stroke:#000;stroke-width:.25" width="90" height="25" x="0" y="0"/><text x="45" y="12.5" text-anchor="middle" transform="translate(0,2)">Reserved</text><text style="font-family:monospace" x="-2" y="2" text-anchor="end">0x4000C000</text></g><g transform="translate(0,100)"><a xlink:href="TC0.html"><text style="font-family:monospace;font-style:oblique" x="4" y="9" text-anchor="start">TC0</text></a><a xlink:href="TC0.html"><text x="45" y="14.5" text-anchor="middle">TC0</text></a><rect style="fill:none;stroke:#000;stroke-width:.25" width="90" height="25" x="0" y="0"/><text style="font-family:monospace;font-style:normal" x="-2" y="2" text-anchor="end">0x40080000</text><text style="font-family:monospace" x="86" y="21" text-anchor="end" transform="translate(0,2)">22</text></g><g transform="translate(0,125)"><a xlink:href="TC0.html"><text style="font-family:monospace;font-style:oblique" x="4" y="9" text-anchor="start">TC0</text></a><a xlink:href="TC1.html"><text x="45" y="14.5" text-anchor="middle">TC1</text></a><rect style="fill:none;stroke:#000;stroke-width:.25" width="90" height="25" x="0" y="0"/><text style="font-family:monospace;font-style:oblique" x="-2" y="2" text-anchor="end">+0x40</text><text style="font-family:monospace" x="86" y="21" text-anchor="end" transform="translate(0,2)">23</text></g><g transform="translate(0,150)"><a xlink:href="TC0.html"><text style="font-family:monospace;font-style:oblique" x="4" y="9" text-anchor="start">TC0</text></a><a xlink:href="TC2.html"><text x="45" y="14.5" text-anchor="middle">TC2</text></a><rect style="fill:none;stroke:#000;stroke-width:.25" width="90" height="25" x="0" y="0"/><text style="font-family:monospace;font-style:oblique" x="-2" y="2" text-anchor="end">+0x80</text><text style="font-family:monospace" x="86" y="21" text-anchor="end" transform="translate(0,2)">24</text></g><g transform="translate(0,175)"><rect style="fill:none;stroke:#000;stroke-width:.25" width="90" height="25" x="0" y="0"/><a xlink:href="TWI0.html"><text x="45" y="12.5" text-anchor="middle" transform="translate(0,2)">TWI0</text></a><text style="font-family:monospace" x="86" y="21" text-anchor="end" transform="translate(0,2)">18</text><text style="font-family:monospace" x="-2" y="2" text-anchor="end">0x40084000</text></g><g transform="translate(0,200)"><rect style="fill:none;stroke:#000;stroke-width:.25" width="90" height="25" x="0" y="0"/><a xlink:href="TWI1.html"><text x="45" y="12.5" text-anchor="middle" transform="translate(0,2)">TWI1</text></a><text style="font-family:monospace" x="86" y="21" text-anchor="end" transform="translate(0,2)">19</text><text style="font-family:monospace" x="-2" y="2" text-anchor="end">0x40088000</text></g><g transform="translate(0,225)"><rect style="fill:none;stroke:#000;stroke-width:.25" width="90" height="25" x="0" y="0"/><a xlink:href="PWM.html"><text x="45" y="12.5" text-anchor="middle" transform="translate(0,2)">PWM</text></a><text style="font-family:monospace" x="86" y="21" text-anchor="end" transform="translate(0,2)">25</text><text style="font-family:monospace" x="-2" y="2" text-anchor="end">0x4008C000</text></g><g transform="translate(0,250)"><rect style="fill:none;stroke:#000;stroke-width:.25" width="90" height="25" x="0" y="0"/><a xlink:href="USART0.html"><text x="45" y="12.5" text-anchor="middle" transform="translate(0,2)">USART0</text></a><text style="font-family:monospace" x="86" y="21" text-anchor="end" transform="translate(0,2)">13</text><text style="font-family:monospace" x="-2" y="2" text-anchor="end">0x40090000</text></g><g transform="translate(0,275)"><rect style="fill:none;stroke:#000;stroke-width:.25" width="90" height="25" x="0" y="0"/><a xlink:href="USART1.html"><text x="45" y="12.5" text-anchor="middle" transform="translate(0,2)">USART1</text></a><text style="font-family:monospace" x="86" y="21" text-anchor="end" transform="translate(0,2)">14</text><text style="font-family:monospace" x="-2" y="2" text-anchor="end">0x40094000</text></g><g transform="translate(0,300)"><rect style="fill:none;stroke:#000;stroke-width:.25" width="90" height="25" x="0" y="0"/><a xlink:href="USART2.html"><text x="45" y="12.5" text-anchor="middle" transform="translate(0,2)">USART2</text></a><text style="font-family:monospace" x="86" y="21" text-anchor="end" transform="translate(0,2)">15</text><text style="font-family:monospace" x="-2" y="2" text-anchor="end">0x40098000</text></g><g transform="translate(0,325)"><rect style="fill:none;stroke:#000;stroke-width:.25" width="90" height="25" x="0" y="0"/><a xlink:href="USART3.html"><text x="45" y="12.5" text-anchor="middle" transform="translate(0,2)">USART3</text></a><text style="font-family:monospace" x="86" y="21" text-anchor="end" transform="translate(0,2)">16</text><text style="font-family:monospace" x="-2" y="2" text-anchor="end">0x4009C000</text></g><g transform="translate(0,350)"><rect style="fill:#eee;stroke:#000;stroke-width:.25" width="90" height="25" x="0" y="0"/><text x="45" y="12.5" text-anchor="middle" transform="translate(0,2)">Reserved</text><text style="font-family:monospace" x="-2" y="2" text-anchor="end">0x400A0000</text></g><g transform="translate(0,375)"><rect style="fill:none;stroke:#000;stroke-width:.25" width="90" height="25" x="0" y="0"/><a xlink:href="UDPHS.html"><text x="45" y="12.5" text-anchor="middle" transform="translate(0,2)">UDPHS</text></a><text style="font-family:monospace" x="86" y="21" text-anchor="end" transform="translate(0,2)">29</text><text style="font-family:monospace" x="-2" y="2" text-anchor="end">0x400A4000</text></g><g transform="translate(0,400)"><rect style="fill:none;stroke:#000;stroke-width:.25" width="90" height="25" x="0" y="0"/><a xlink:href="ADC12B.html"><text x="45" y="12.5" text-anchor="middle" transform="translate(0,2)">ADC12B</text></a><text style="font-family:monospace" x="86" y="21" text-anchor="end" transform="translate(0,2)">26</text><text style="font-family:monospace" x="-2" y="2" text-anchor="end">0x400A8000</text></g><g transform="translate(0,425)"><rect style="fill:none;stroke:#000;stroke-width:.25" width="90" height="25" x="0" y="0"/><a xlink:href="ADC.html"><text x="45" y="12.5" text-anchor="middle" transform="translate(0,2)">ADC</text></a><text style="font-family:monospace" x="86" y="21" text-anchor="end" transform="translate(0,2)">27</text><text style="font-family:monospace" x="-2" y="2" text-anchor="end">0x400AC000</text></g><g transform="translate(0,450)"><rect style="fill:none;stroke:#000;stroke-width:.25" width="90" height="25" x="0" y="0"/><a xlink:href="DMAC.html"><text x="45" y="12.5" text-anchor="middle" transform="translate(0,2)">DMAC</text></a><text style="font-family:monospace" x="86" y="21" text-anchor="end" transform="translate(0,2)">28</text><text style="font-family:monospace" x="-2" y="2" text-anchor="end">0x400B0000</text></g><g transform="translate(0,475)"><rect style="fill:#eee;stroke:#000;stroke-width:.25" width="90" height="25" x="0" y="0"/><text x="45" y="12.5" text-anchor="middle" transform="translate(0,2)">Reserved</text><text style="font-family:monospace" x="-2" y="2" text-anchor="end">0x400B3FFF</text></g><g transform="translate(0,500)"><rect style="fill:none;stroke:#000;stroke-width:.25" width="90" height="25" x="0" y="0"/><text x="45" y="12.5" text-anchor="middle" transform="translate(0,2)">System Controller</text><text style="font-family:monospace" x="-2" y="2" text-anchor="end">0x400E0000</text></g><g transform="translate(0,525)"><rect style="fill:#eee;stroke:#000;stroke-width:.25" width="90" height="25" x="0" y="0"/><text x="45" y="12.5" text-anchor="middle" transform="translate(0,2)">Reserved</text><text style="font-family:monospace" x="-2" y="2" text-anchor="end">0x400E2600</text><text style="font-family:monospace" x="-2" y="27" text-anchor="end">0x60000000</text></g><rect style="fill:none;stroke:#000;stroke-width:1" width="90" height="550" x="0" y="0"/></g><g id="External_SRAM" transform="translate(260,895)" style="font-family:sans-serif;font-size:8px"><text x="45" y="-4" text-anchor="middle">External SRAM</text><g transform="translate(0,0)"><rect style="fill:none;stroke:#000;stroke-width:.25" width="90" height="25" x="0" y="0"/><text x="45" y="12.5" text-anchor="middle" transform="translate(0,2)">Chip Select 0</text><text style="font-family:monospace" x="-2" y="2" text-anchor="end">0x60000000</text></g><g transform="translate(0,25)"><rect style="fill:none;stroke:#000;stroke-width:.25" width="90" height="25" x="0" y="0"/><text x="45" y="12.5" text-anchor="middle" transform="translate(0,2)">Chip Select 1</text><text style="font-family:monospace" x="-2" y="2" text-anchor="end">0x61000000</text></g><g transform="translate(0,50)"><rect style="fill:none;stroke:#000;stroke-width:.25" width="90" height="25" x="0" y="0"/><text x="45" y="12.5" text-anchor="middle" transform="translate(0,2)">Chip Select 2</text><text style="font-family:monospace" x="-2" y="2" text-anchor="end">0x62000000</text></g><g transform="translate(0,75)"><rect style="fill:none;stroke:#000;stroke-width:.25" width="90" height="25" x="0" y="0"/><text x="45" y="12.5" text-anchor="middle" transform="translate(0,2)">Chip Select 3</text><text style="font-family:monospace" x="-2" y="2" text-anchor="end">0x63000000</text></g><g transform="translate(0,100)"><rect style="fill:#eee;stroke:#000;stroke-width:.25" width="90" height="25" x="0" y="0"/><text x="45" y="12.5" text-anchor="middle" transform="translate(0,2)">reserved</text><text style="font-family:monospace" x="-2" y="2" text-anchor="end">0x64000000</text></g><g transform="translate(0,125)"><rect style="fill:none;stroke:#000;stroke-width:.25" width="90" height="25" x="0" y="0"/><text x="45" y="12.5" text-anchor="middle" transform="translate(0,2)">NFC</text><text style="font-family:monospace" x="-2" y="2" text-anchor="end">0x68000000</text></g><g transform="translate(0,150)"><rect style="fill:#eee;stroke:#000;stroke-width:.25" width="90" height="25" x="0" y="0"/><text x="45" y="12.5" text-anchor="middle" transform="translate(0,2)">reserved</text><text style="font-family:monospace" x="-2" y="2" text-anchor="end">0x69000000</text><text style="font-family:monospace" x="-2" y="27" text-anchor="end">0x9FFFFFFF</text></g><rect style="fill:none;stroke:#000;stroke-width:1" width="90" height="175" x="0" y="0"/></g><g id="System_Controller" transform="translate(440,20)" style="font-family:sans-serif;font-size:8px"><text x="45" y="-4" text-anchor="middle">System Controller</text><g transform="translate(0,0)"><rect style="fill:none;stroke:#000;stroke-width:.25" width="90" height="25" x="0" y="0"/><a xlink:href="SMC.html"><text x="45" y="12.5" text-anchor="middle" transform="translate(0,2)">SMC</text></a><text style="font-family:monospace" x="86" y="21" text-anchor="end" transform="translate(0,2)">9</text><text style="font-family:monospace" x="-2" y="2" text-anchor="end">0x400E0000</text></g><g transform="translate(0,25)"><rect style="fill:none;stroke:#000;stroke-width:.25" width="90" height="25" x="0" y="0"/><a xlink:href="MATRIX.html"><text x="45" y="12.5" text-anchor="middle" transform="translate(0,2)">MATRIX</text></a><text style="font-family:monospace" x="-2" y="2" text-anchor="end">0x400E0200</text></g><g transform="translate(0,50)"><rect style="fill:none;stroke:#000;stroke-width:.25" width="90" height="25" x="0" y="0"/><a xlink:href="PMC.html"><text x="45" y="12.5" text-anchor="middle" transform="translate(0,2)">PMC</text></a><text style="font-family:monospace" x="86" y="21" text-anchor="end" transform="translate(0,2)">5</text><text style="font-family:monospace" x="-2" y="2" text-anchor="end">0x400E0400</text></g><g transform="translate(0,75)"><rect style="fill:none;stroke:#000;stroke-width:.25" width="90" height="25" x="0" y="0"/><a xlink:href="UART.html"><text x="45" y="12.5" text-anchor="middle" transform="translate(0,2)">UART</text></a><text style="font-family:monospace" x="86" y="21" text-anchor="end" transform="translate(0,2)">8</text><text style="font-family:monospace" x="-2" y="2" text-anchor="end">0x400E0600</text></g><g transform="translate(0,100)"><rect style="fill:none;stroke:#000;stroke-width:.25" width="90" height="25" x="0" y="0"/><a xlink:href="CHIPID.html"><text x="45" y="12.5" text-anchor="middle" transform="translate(0,2)">CHIPID</text></a><text style="font-family:monospace" x="-2" y="2" text-anchor="end">0x400E0740</text></g><g transform="translate(0,125)"><rect style="fill:none;stroke:#000;stroke-width:.25" width="90" height="25" x="0" y="0"/><a xlink:href="EFC0.html"><text x="45" y="12.5" text-anchor="middle" transform="translate(0,2)">EFC0</text></a><text style="font-family:monospace" x="86" y="21" text-anchor="end" transform="translate(0,2)">6</text><text style="font-family:monospace" x="-2" y="2" text-anchor="end">0x400E0800</text></g><g transform="translate(0,150)"><rect style="fill:none;stroke:#000;stroke-width:.25" width="90" height="25" x="0" y="0"/><a xlink:href="EFC1.html"><text x="45" y="12.5" text-anchor="middle" transform="translate(0,2)">EFC1</text></a><text style="font-family:monospace" x="86" y="21" text-anchor="end" transform="translate(0,2)">7</text><text style="font-family:monospace" x="-2" y="2" text-anchor="end">0x400E0A00</text></g><g transform="translate(0,175)"><rect style="fill:none;stroke:#000;stroke-width:.25" width="90" height="25" x="0" y="0"/><a xlink:href="PIOA.html"><text x="45" y="12.5" text-anchor="middle" transform="translate(0,2)">PIOA</text></a><text style="font-family:monospace" x="86" y="21" text-anchor="end" transform="translate(0,2)">10</text><text style="font-family:monospace" x="-2" y="2" text-anchor="end">0x400E0C00</text></g><g transform="translate(0,200)"><rect style="fill:none;stroke:#000;stroke-width:.25" width="90" height="25" x="0" y="0"/><a xlink:href="PIOB.html"><text x="45" y="12.5" text-anchor="middle" transform="translate(0,2)">PIOB</text></a><text style="font-family:monospace" x="86" y="21" text-anchor="end" transform="translate(0,2)">11</text><text style="font-family:monospace" x="-2" y="2" text-anchor="end">0x400E0E00</text></g><g transform="translate(0,225)"><rect style="fill:none;stroke:#000;stroke-width:.25" width="90" height="25" x="0" y="0"/><a xlink:href="PIOC.html"><text x="45" y="12.5" text-anchor="middle" transform="translate(0,2)">PIOC</text></a><text style="font-family:monospace" x="86" y="21" text-anchor="end" transform="translate(0,2)">12</text><text style="font-family:monospace" x="-2" y="2" text-anchor="end">0x400E1000</text></g><g transform="translate(0,250)"><a xlink:href="SYSC.html"><text style="font-family:monospace;font-style:oblique" x="4" y="9" text-anchor="start">SYSC</text></a><a xlink:href="RSTC.html"><text x="45" y="14.5" text-anchor="middle">RSTC</text></a><rect style="fill:none;stroke:#000;stroke-width:.25" width="90" height="25" x="0" y="0"/><text style="font-family:monospace;font-style:normal" x="-2" y="2" text-anchor="end">0x400E1200</text><text style="font-family:monospace" x="86" y="21" text-anchor="end" transform="translate(0,2)">1</text></g><g transform="translate(0,275)"><a xlink:href="SYSC.html"><text style="font-family:monospace;font-style:oblique" x="4" y="9" text-anchor="start">SYSC</text></a><a xlink:href="SUPC.html"><text x="45" y="14.5" text-anchor="middle">SUPC</text></a><rect style="fill:none;stroke:#000;stroke-width:.25" width="90" height="25" x="0" y="0"/><text style="font-family:monospace;font-style:oblique" x="-2" y="2" text-anchor="end">+0x10</text></g><g transform="translate(0,300)"><a xlink:href="SYSC.html"><text style="font-family:monospace;font-style:oblique" x="4" y="9" text-anchor="start">SYSC</text></a><a xlink:href="RTT.html"><text x="45" y="14.5" text-anchor="middle">RTT</text></a><rect style="fill:none;stroke:#000;stroke-width:.25" width="90" height="25" x="0" y="0"/><text style="font-family:monospace;font-style:oblique" x="-2" y="2" text-anchor="end">+0x30</text><text style="font-family:monospace" x="86" y="21" text-anchor="end" transform="translate(0,2)">3</text></g><g transform="translate(0,325)"><a xlink:href="SYSC.html"><text style="font-family:monospace;font-style:oblique" x="4" y="9" text-anchor="start">SYSC</text></a><a xlink:href="WDT.html"><text x="45" y="14.5" text-anchor="middle">WDT</text></a><rect style="fill:none;stroke:#000;stroke-width:.25" width="90" height="25" x="0" y="0"/><text style="font-family:monospace;font-style:oblique" x="-2" y="2" text-anchor="end">+0x50</text><text style="font-family:monospace" x="86" y="21" text-anchor="end" transform="translate(0,2)">4</text></g><g transform="translate(0,350)"><a xlink:href="SYSC.html"><text style="font-family:monospace;font-style:oblique" x="4" y="9" text-anchor="start">SYSC</text></a><a xlink:href="RTC.html"><text x="45" y="14.5" text-anchor="middle">RTC</text></a><rect style="fill:none;stroke:#000;stroke-width:.25" width="90" height="25" x="0" y="0"/><text style="font-family:monospace;font-style:oblique" x="-2" y="2" text-anchor="end">+0x60</text><text style="font-family:monospace" x="86" y="21" text-anchor="end" transform="translate(0,2)">2</text></g><g transform="translate(0,375)"><a xlink:href="SYSC.html"><text style="font-family:monospace;font-style:oblique" x="4" y="9" text-anchor="start">SYSC</text></a><a xlink:href="GPBR.html"><text x="45" y="14.5" text-anchor="middle">GPBR</text></a><rect style="fill:none;stroke:#000;stroke-width:.25" width="90" height="25" x="0" y="0"/><text style="font-family:monospace;font-style:oblique" x="-2" y="2" text-anchor="end">+0x90</text></g><g transform="translate(0,400)"><rect style="fill:#eee;stroke:#000;stroke-width:.25" width="90" height="25" x="0" y="0"/><text x="45" y="12.5" text-anchor="middle" transform="translate(0,2)">reserved</text><text style="font-family:monospace" x="-2" y="2" text-anchor="end">0x400E1400</text><text style="font-family:monospace" x="-2" y="27" text-anchor="end">0x4007FFFF</text></g><rect style="fill:none;stroke:#000;stroke-width:1" width="90" height="425" x="0" y="0"/></g><g style="font-family:sans-serif;font-size:8px" transform="translate(80,370)"><rect style="fill:none;stroke:#000;stroke-width:.25" width="90" height="25" x="0" y="0"/><text style="font-family:monospace" x="-2" y="2" text-anchor="end">offset</text><text style="font-family:monospace" x="86" y="21" text-anchor="end" transform="translate(0,2)">ID</text><text style="font-family:monospace" x="86" y="31" text-anchor="end" transform="translate(0,2)">(+ : wired-or)</text><text x="45" y="14.5" text-anchor="middle">peripheral</text><text style="font-family:monospace;font-style:oblique" x="4" y="9" text-anchor="start">block</text></g><g><line x1="170" x2="260" y1="20" y2="20" stroke="gray" stroke-dasharray="2 2" stroke-width="1"/><line x1="170" x2="260" y1="70" y2="145" stroke="gray" stroke-dasharray="2 2" stroke-width="1"/><line x1="170" x2="260" y1="70" y2="170" stroke="gray" stroke-dasharray="2 2" stroke-width="1"/><line x1="170" x2="260" y1="120" y2="295" stroke="gray" stroke-dasharray="2 2" stroke-width="1"/><line x1="170" x2="260" y1="120" y2="320" stroke="gray" stroke-dasharray="2 2" stroke-width="1"/><line x1="170" x2="260" y1="170" y2="870" stroke="gray" stroke-dasharray="2 2" stroke-width="1"/><line x1="170" x2="260" y1="170" y2="895" stroke="gray" stroke-dasharray="2 2" stroke-width="1"/><line x1="170" x2="260" y1="220" y2="1070" stroke="gray" stroke-dasharray="2 2" stroke-width="1"/><line x1="350" x2="440" y1="820" y2="20" stroke="gray" stroke-dasharray="2 2" stroke-width="1"/><line x1="350" x2="440" y1="845" y2="445" stroke="gray" stroke-dasharray="2 2" stroke-width="1"/></g></svg>